<svg xmlns="http://www.w3.org/2000/svg" viewBox="0 0 173.8 170"><defs><style>.cls-1{fill:#8bc53f;}.cls-2,.cls-5{fill:#212657;}.cls-3{fill:none;}.cls-4{fill:#202555;}.cls-5{fill-rule:evenodd;}</style></defs><title>Recurso 32</title><g id="Capa_2" data-name="Capa 2"><g id="BASE"><path class="cls-1" d="M4.12,146.62v8.22a8,8,0,0,1,2.44-1.69,7.11,7.11,0,0,1,2.8-.56A7.21,7.21,0,0,1,14.87,155a8.9,8.9,0,0,1,2.27,6.29,8.64,8.64,0,0,1-2.35,6.18A7.37,7.37,0,0,1,9.24,170a6.94,6.94,0,0,1-2.67-.51,8.1,8.1,0,0,1-2.45-1.67v1.75H0V146.62Zm4.37,9.8a4.37,4.37,0,0,0-3.26,1.34,4.85,4.85,0,0,0-1.29,3.5,5,5,0,0,0,1.29,3.57,4.31,4.31,0,0,0,3.26,1.36,4.24,4.24,0,0,0,3.21-1.38,5,5,0,0,0,1.3-3.53,4.89,4.89,0,0,0-1.28-3.49A4.24,4.24,0,0,0,8.49,156.42Z"/><path class="cls-1" d="M17.78,146.62h4.16v22.95H17.78Z"/><path class="cls-1" d="M23.36,153h4.2v8a11.14,11.14,0,0,0,.32,3.23,2.78,2.78,0,0,0,1,1.41,2.92,2.92,0,0,0,1.75.51,3,3,0,0,0,1.76-.5,3,3,0,0,0,1.08-1.45,11.44,11.44,0,0,0,.25-3.06V153h4.16v7a17.47,17.47,0,0,1-.68,5.94,6.49,6.49,0,0,1-2.47,3,7.61,7.61,0,0,1-4.14,1,7.38,7.38,0,0,1-4.41-1.22,6.38,6.38,0,0,1-2.36-3.39,20.34,20.34,0,0,1-.49-5.48Z"/><path class="cls-2" d="M52,153h4.15v16.56H52v-1.75a8.1,8.1,0,0,1-2.45,1.67,6.77,6.77,0,0,1-2.65.51,7.37,7.37,0,0,1-5.55-2.49A8.68,8.68,0,0,1,39,161.33,8.9,8.9,0,0,1,41.25,155a7.19,7.19,0,0,1,5.5-2.45,7.11,7.11,0,0,1,2.8.56A7.87,7.87,0,0,1,52,154.84Zm-4.37,3.41a4.19,4.19,0,0,0-3.2,1.37,5.42,5.42,0,0,0,0,7,4.2,4.2,0,0,0,3.19,1.38,4.27,4.27,0,0,0,3.25-1.36,5,5,0,0,0,1.29-3.57,4.85,4.85,0,0,0-1.29-3.5A4.35,4.35,0,0,0,47.6,156.42Z"/><path class="cls-2" d="M68.12,155.33l-2.57,2.57a4.35,4.35,0,0,0-2.85-1.55,1.83,1.83,0,0,0-1.09.29.89.89,0,0,0-.15,1.36,4.8,4.8,0,0,0,1.24.77l1.52.76A9,9,0,0,1,67.53,162a5,5,0,0,1-.73,6.57A6.18,6.18,0,0,1,62.46,170a6.9,6.9,0,0,1-5.79-2.83l2.56-2.79a6,6,0,0,0,1.71,1.38,3.84,3.84,0,0,0,1.75.53,2,2,0,0,0,1.32-.4,1.13,1.13,0,0,0,.5-.91c0-.64-.6-1.27-1.81-1.87l-1.4-.71q-4-2-4-5.06A4.41,4.41,0,0,1,58.8,154a5.49,5.49,0,0,1,3.87-1.39,6.63,6.63,0,0,1,3,.71A6.71,6.71,0,0,1,68.12,155.33Z"/><path class="cls-2" d="M79.5,155.33l-2.58,2.57a4.31,4.31,0,0,0-2.84-1.55,1.87,1.87,0,0,0-1.1.29.91.91,0,0,0-.39.74.89.89,0,0,0,.25.62,4.61,4.61,0,0,0,1.24.77l1.52.76A9,9,0,0,1,78.9,162a5,5,0,0,1-.72,6.57A6.19,6.19,0,0,1,73.83,170a6.9,6.9,0,0,1-5.78-2.83l2.56-2.79a5.84,5.84,0,0,0,1.71,1.38,3.77,3.77,0,0,0,1.74.53,2.07,2.07,0,0,0,1.33-.4,1.15,1.15,0,0,0,.5-.91c0-.64-.61-1.27-1.81-1.87l-1.4-.71q-4-2-4-5.06A4.4,4.4,0,0,1,70.17,154a5.5,5.5,0,0,1,3.88-1.39,6.62,6.62,0,0,1,3,.71A6.74,6.74,0,0,1,79.5,155.33Z"/><path class="cls-2" d="M82.35,146.2a2.54,2.54,0,0,1,1.88.79,2.73,2.73,0,0,1,0,3.81,2.61,2.61,0,0,1-3.74,0,2.62,2.62,0,0,1-.79-1.94,2.55,2.55,0,0,1,.78-1.87A2.51,2.51,0,0,1,82.35,146.2ZM80.28,153h4.15v16.56H80.28Z"/><path class="cls-2" d="M96,155.33l-2.57,2.57a4.35,4.35,0,0,0-2.85-1.55,1.87,1.87,0,0,0-1.1.29.91.91,0,0,0-.39.74.89.89,0,0,0,.25.62,4.61,4.61,0,0,0,1.24.77l1.52.76A9.14,9.14,0,0,1,95.42,162a5.05,5.05,0,0,1-.73,6.57A6.18,6.18,0,0,1,90.35,170a6.9,6.9,0,0,1-5.79-2.83l2.56-2.79a6,6,0,0,0,1.71,1.38,3.84,3.84,0,0,0,1.74.53,2.07,2.07,0,0,0,1.33-.4,1.15,1.15,0,0,0,.5-.91c0-.64-.6-1.27-1.81-1.87l-1.4-.71q-4-2-4-5.06A4.4,4.4,0,0,1,86.68,154a5.53,5.53,0,0,1,3.88-1.39,6.66,6.66,0,0,1,3,.71A6.79,6.79,0,0,1,96,155.33Z"/><path class="cls-2" d="M97.75,146.91h4.15V153h2.47v3.58H101.9v13H97.75v-13H95.62V153h2.13Z"/><path class="cls-2" d="M116.48,153h4.15v16.56h-4.15v-1.75a8.19,8.19,0,0,1-2.44,1.67,6.85,6.85,0,0,1-2.66.51,7.37,7.37,0,0,1-5.55-2.49,8.68,8.68,0,0,1-2.34-6.18,8.9,8.9,0,0,1,2.27-6.29,7.19,7.19,0,0,1,5.5-2.45,7.11,7.11,0,0,1,2.8.56,7.75,7.75,0,0,1,2.42,1.69Zm-4.37,3.41a4.19,4.19,0,0,0-3.2,1.37,4.89,4.89,0,0,0-1.28,3.49,5,5,0,0,0,1.3,3.53,4.2,4.2,0,0,0,3.19,1.38,4.27,4.27,0,0,0,3.25-1.36,5,5,0,0,0,1.29-3.57,4.85,4.85,0,0,0-1.29-3.5A4.35,4.35,0,0,0,112.11,156.42Z"/><path class="cls-2" d="M122.49,153h4.16v1.7a10.13,10.13,0,0,1,2.56-1.66,6.22,6.22,0,0,1,2.35-.46,5.68,5.68,0,0,1,4.18,1.72,5.9,5.9,0,0,1,1.44,4.32v10.94h-4.11v-7.25a19,19,0,0,0-.26-3.94,2.75,2.75,0,0,0-.93-1.48,2.58,2.58,0,0,0-1.63-.51,3.06,3.06,0,0,0-2.17.85,4.49,4.49,0,0,0-1.25,2.33,19.1,19.1,0,0,0-.18,3.36v6.64h-4.16Z"/><path class="cls-2" d="M155.07,156.36l-3.46,1.91a5.11,5.11,0,0,0-4.16-1.82,5.2,5.2,0,0,0-3.77,1.4,4.72,4.72,0,0,0-1.44,3.56,4.56,4.56,0,0,0,1.39,3.45,5,5,0,0,0,3.64,1.33,5.27,5.27,0,0,0,4.34-1.9l3.28,2.25a10.09,10.09,0,0,1-14.36.87,8.7,8.7,0,0,1-1.27-10.48,8.58,8.58,0,0,1,3.35-3.19,10.06,10.06,0,0,1,4.82-1.15,9.84,9.84,0,0,1,4.43,1A8.4,8.4,0,0,1,155.07,156.36Z"/><path class="cls-2" d="M173.07,162.5H159.72a4.41,4.41,0,0,0,1.55,2.8,4.8,4.8,0,0,0,3.2,1,5.51,5.51,0,0,0,4-1.63l3.5,1.64a8.17,8.17,0,0,1-3.13,2.75,9.89,9.89,0,0,1-4.34.89,8.58,8.58,0,0,1-6.35-2.46,8.37,8.37,0,0,1-2.45-6.15,8.69,8.69,0,0,1,2.44-6.3,8.23,8.23,0,0,1,6.13-2.5,8.49,8.49,0,0,1,6.36,2.5,9,9,0,0,1,2.46,6.61Zm-4.16-3.28a4.14,4.14,0,0,0-1.62-2.25,4.69,4.69,0,0,0-2.81-.87,5,5,0,0,0-3,1,5.41,5.41,0,0,0-1.53,2.14Z"/><path class="cls-3" d="M115.74,49.9A31.25,31.25,0,1,0,117.47,55Z"/><path class="cls-4" d="M115.74,49.9,117.47,55A30.83,30.83,0,0,0,115.74,49.9Z"/><path class="cls-2" d="M148.78,53A62.6,62.6,0,0,0,99.28,1.26,61.83,61.83,0,0,0,40.13,21.34L33,.27H.85l25,74A62,62,0,0,0,31.14,90a62.44,62.44,0,0,0,56,34.82,61.89,61.89,0,0,0,46.78-20.63l7.26,22h32.18ZM87.13,93.62A31.23,31.23,0,1,1,115.74,49.9,30.83,30.83,0,0,1,117.47,55a31.2,31.2,0,0,1-30.34,38.6Z"/><path class="cls-1" d="M87.13,8.61a53.79,53.79,0,1,0,53.78,53.78A53.79,53.79,0,0,0,87.13,8.61Zm-.47,84.18a30.4,30.4,0,1,1,30.4-30.4A30.4,30.4,0,0,1,86.66,92.79Z"/><path class="cls-5" d="M160.49,8.2a6.66,6.66,0,1,0,6.67-6.62A6.64,6.64,0,0,0,160.49,8.2Zm1.2,0a5.45,5.45,0,1,1,10.9,0,5.46,5.46,0,1,1-10.9,0Zm2.89,3.92h1.2V8.77h1.27l2.11,3.35h1.29l-2.21-3.44a2,2,0,0,0,2-2.11c0-1.5-.86-2.23-2.7-2.23h-3Zm1.2-6.8h1.59c.81,0,1.7.16,1.7,1.19,0,1.23-1,1.28-2,1.28h-1.25Z"/></g></g></svg>