<svg xmlns="http://www.w3.org/2000/svg" viewBox="0 0 173.79 170"><defs><style>.cls-1{fill:#6d6e70;}.cls-2,.cls-5{fill:#1d4386;}.cls-3{fill:none;}.cls-4{fill:#202555;}.cls-5{fill-rule:evenodd;}</style></defs><title>Recurso 28</title><g id="Capa_2" data-name="Capa 2"><g id="BASE"><path class="cls-1" d="M4.12,146.62v8.22a8,8,0,0,1,2.44-1.69,7.11,7.11,0,0,1,2.8-.56A7.24,7.24,0,0,1,14.87,155a8.9,8.9,0,0,1,2.27,6.29,8.64,8.64,0,0,1-2.35,6.18A7.37,7.37,0,0,1,9.24,170a6.94,6.94,0,0,1-2.67-.51,8.1,8.1,0,0,1-2.45-1.67v1.75H0V146.62Zm4.37,9.81a4.36,4.36,0,0,0-3.26,1.33,4.85,4.85,0,0,0-1.29,3.5,5,5,0,0,0,1.29,3.57,4.32,4.32,0,0,0,3.26,1.37,4.25,4.25,0,0,0,3.21-1.39,5,5,0,0,0,1.3-3.53,4.89,4.89,0,0,0-1.28-3.49A4.23,4.23,0,0,0,8.49,156.43Z"/><path class="cls-1" d="M17.78,146.62h4.16v22.95H17.78Z"/><path class="cls-1" d="M23.36,153h4.2v8a11.14,11.14,0,0,0,.32,3.23,2.78,2.78,0,0,0,1,1.41,2.92,2.92,0,0,0,1.75.51,3.06,3.06,0,0,0,1.76-.5,2.92,2.92,0,0,0,1.07-1.45,10.89,10.89,0,0,0,.26-3.06V153h4.16v7a17.14,17.14,0,0,1-.69,5.94,6.41,6.41,0,0,1-2.46,3,7.61,7.61,0,0,1-4.14,1,7.36,7.36,0,0,1-4.41-1.22,6.38,6.38,0,0,1-2.36-3.39,20.34,20.34,0,0,1-.49-5.48Z"/><path class="cls-2" d="M52,153h4.16v16.56H52v-1.75a7.94,7.94,0,0,1-2.44,1.67,6.8,6.8,0,0,1-2.65.51,7.37,7.37,0,0,1-5.55-2.49A8.68,8.68,0,0,1,39,161.33,8.9,8.9,0,0,1,41.25,155a7.22,7.22,0,0,1,5.5-2.45,7.14,7.14,0,0,1,2.8.56A7.71,7.71,0,0,1,52,154.84Zm-4.36,3.42a4.2,4.2,0,0,0-3.21,1.36,5.44,5.44,0,0,0,0,7,4.21,4.21,0,0,0,3.19,1.39,4.28,4.28,0,0,0,3.25-1.37,5,5,0,0,0,1.29-3.57,4.85,4.85,0,0,0-1.29-3.5A4.34,4.34,0,0,0,47.6,156.43Z"/><path class="cls-2" d="M68.12,155.33l-2.57,2.57a4.39,4.39,0,0,0-2.85-1.55,1.8,1.8,0,0,0-1.1.3.88.88,0,0,0-.39.73.89.89,0,0,0,.25.62,4.8,4.8,0,0,0,1.24.77l1.52.76a8.91,8.91,0,0,1,3.3,2.42,5,5,0,0,1-.72,6.57A6.18,6.18,0,0,1,62.46,170a6.9,6.9,0,0,1-5.79-2.83l2.56-2.79a6,6,0,0,0,1.71,1.38,3.84,3.84,0,0,0,1.74.53,2.07,2.07,0,0,0,1.33-.4,1.15,1.15,0,0,0,.5-.91c0-.64-.6-1.27-1.81-1.87l-1.4-.71q-4-2-4-5.06A4.41,4.41,0,0,1,58.8,154a5.47,5.47,0,0,1,3.87-1.39,6.59,6.59,0,0,1,3,.71A6.74,6.74,0,0,1,68.12,155.33Z"/><path class="cls-2" d="M79.49,155.33l-2.57,2.57a4.37,4.37,0,0,0-2.85-1.55,1.76,1.76,0,0,0-1.09.3.89.89,0,0,0-.4.73.94.94,0,0,0,.25.62,5,5,0,0,0,1.24.77l1.53.76A9,9,0,0,1,78.9,162a5,5,0,0,1-.72,6.57A6.19,6.19,0,0,1,73.83,170a6.9,6.9,0,0,1-5.78-2.83l2.55-2.79a5.88,5.88,0,0,0,1.72,1.38,3.77,3.77,0,0,0,1.74.53,2,2,0,0,0,1.32-.4,1.14,1.14,0,0,0,.51-.91c0-.64-.61-1.27-1.82-1.87l-1.4-.71q-4-2-4-5.06A4.4,4.4,0,0,1,70.17,154,5.49,5.49,0,0,1,74,152.59a6.63,6.63,0,0,1,3,.71A6.71,6.71,0,0,1,79.49,155.33Z"/><path class="cls-2" d="M82.35,146.2a2.54,2.54,0,0,1,1.88.79,2.63,2.63,0,0,1,.78,1.92,2.57,2.57,0,0,1-.78,1.89,2.61,2.61,0,0,1-3.74,0,2.65,2.65,0,0,1-.78-1.94,2.55,2.55,0,0,1,.78-1.87A2.5,2.5,0,0,1,82.35,146.2ZM80.28,153h4.15v16.56H80.28Z"/><path class="cls-2" d="M96,155.33l-2.57,2.57a4.35,4.35,0,0,0-2.84-1.55,1.78,1.78,0,0,0-1.1.3.89.89,0,0,0-.4.73.94.94,0,0,0,.25.62,4.92,4.92,0,0,0,1.25.77l1.52.76a9,9,0,0,1,3.3,2.42,5,5,0,0,1-.72,6.57A6.19,6.19,0,0,1,90.34,170a6.9,6.9,0,0,1-5.78-2.83l2.56-2.79a5.72,5.72,0,0,0,1.71,1.38,3.77,3.77,0,0,0,1.74.53,2,2,0,0,0,1.32-.4,1.14,1.14,0,0,0,.51-.91c0-.64-.61-1.27-1.81-1.87l-1.41-.71q-4-2-4-5.06A4.4,4.4,0,0,1,86.68,154a5.5,5.5,0,0,1,3.88-1.39,6.62,6.62,0,0,1,3,.71A6.71,6.71,0,0,1,96,155.33Z"/><path class="cls-2" d="M97.75,146.91h4.15V153h2.47v3.58H101.9v13H97.75v-13H95.61V153h2.14Z"/><path class="cls-2" d="M116.47,153h4.16v16.56h-4.16v-1.75a7.94,7.94,0,0,1-2.44,1.67,6.8,6.8,0,0,1-2.65.51,7.37,7.37,0,0,1-5.55-2.49,8.68,8.68,0,0,1-2.34-6.18,8.89,8.89,0,0,1,2.26-6.29,7.24,7.24,0,0,1,5.51-2.45,7.06,7.06,0,0,1,2.79.56,7.64,7.64,0,0,1,2.42,1.69Zm-4.37,3.42a4.2,4.2,0,0,0-3.2,1.36,5.44,5.44,0,0,0,0,7,4.21,4.21,0,0,0,3.19,1.39,4.26,4.26,0,0,0,3.24-1.37,5,5,0,0,0,1.29-3.57,4.85,4.85,0,0,0-1.29-3.5A4.31,4.31,0,0,0,112.1,156.43Z"/><path class="cls-2" d="M122.49,153h4.15v1.7a9.82,9.82,0,0,1,2.57-1.65,6,6,0,0,1,2.34-.47,5.65,5.65,0,0,1,4.18,1.72,5.86,5.86,0,0,1,1.45,4.32v10.94h-4.11v-7.25a18,18,0,0,0-.27-3.93,2.73,2.73,0,0,0-.92-1.49,2.63,2.63,0,0,0-1.64-.51,3,3,0,0,0-2.16.85,4.49,4.49,0,0,0-1.25,2.33,18.75,18.75,0,0,0-.19,3.36v6.64h-4.15Z"/><path class="cls-2" d="M155.07,156.36l-3.46,1.91a5.15,5.15,0,0,0-4.16-1.82,5.18,5.18,0,0,0-3.77,1.4,4.68,4.68,0,0,0-1.44,3.56,4.59,4.59,0,0,0,1.38,3.45,5,5,0,0,0,3.64,1.34,5.31,5.31,0,0,0,4.35-1.91l3.27,2.25a8.91,8.91,0,0,1-7.51,3.46,9,9,0,0,1-6.85-2.59,8.6,8.6,0,0,1,2.09-13.66,10.55,10.55,0,0,1,9.25-.18A8.63,8.63,0,0,1,155.07,156.36Z"/><path class="cls-2" d="M173.06,162.5H159.71a4.45,4.45,0,0,0,1.55,2.8,4.82,4.82,0,0,0,3.2,1,5.55,5.55,0,0,0,4-1.63l3.5,1.64a8.27,8.27,0,0,1-3.14,2.75,9.86,9.86,0,0,1-4.34.89,8.56,8.56,0,0,1-6.34-2.46,8.34,8.34,0,0,1-2.45-6.15,8.65,8.65,0,0,1,2.44-6.3,8.2,8.2,0,0,1,6.12-2.5,8.53,8.53,0,0,1,6.37,2.5,9.08,9.08,0,0,1,2.45,6.62Zm-4.15-3.27a4.2,4.2,0,0,0-1.63-2.26,4.67,4.67,0,0,0-2.81-.87,5,5,0,0,0-3.05,1,5.28,5.28,0,0,0-1.52,2.15Z"/><path class="cls-3" d="M115.74,49.9A31.15,31.15,0,1,0,117.47,55Z"/><path class="cls-4" d="M115.74,49.9,117.47,55A32.56,32.56,0,0,0,115.74,49.9Z"/><path class="cls-2" d="M148.78,52.91A62.59,62.59,0,0,0,99.27,1.25a62,62,0,0,0-59.14,20L33,.18H.85l25,74A62,62,0,0,0,31.14,90a62.4,62.4,0,0,0,56,34.84,61.9,61.9,0,0,0,46.78-20.67l7.26,22h32.19ZM87.12,93.62A31.23,31.23,0,1,1,115.74,49.9,32.56,32.56,0,0,1,117.47,55,31.23,31.23,0,0,1,87.12,93.62Z"/><path class="cls-1" d="M87.12,8.61A53.79,53.79,0,1,0,140.91,62.4,53.78,53.78,0,0,0,87.12,8.61Zm-.46,84.18a30.4,30.4,0,1,1,30.4-30.39A30.4,30.4,0,0,1,86.66,92.79Z"/><path class="cls-5" d="M160.48,8.48a6.66,6.66,0,1,0,6.67-6.62A6.63,6.63,0,0,0,160.48,8.48Zm1.2,0a5.46,5.46,0,1,1,10.91,0,5.46,5.46,0,1,1-10.91,0Zm2.89,3.91h1.2V9h1.28l2.1,3.35h1.3L168.23,9a2,2,0,0,0,2-2.11c0-1.5-.87-2.23-2.71-2.23h-3Zm1.2-6.8h1.59c.82,0,1.71.16,1.71,1.2,0,1.22-1,1.27-2,1.27h-1.26Z"/></g></g></svg>