<svg xmlns="http://www.w3.org/2000/svg" viewBox="0 0 173.7 170"><defs><style>.cls-1,.cls-2{fill:#fff;}.cls-2{fill-rule:evenodd;}</style></defs><title>Recurso 36</title><g id="Capa_2" data-name="Capa 2"><g id="BASE"><path class="cls-1" d="M4.12,146.63v8.22a7.83,7.83,0,0,1,2.44-1.69,7.07,7.07,0,0,1,2.8-.56,7.19,7.19,0,0,1,5.5,2.45,8.87,8.87,0,0,1,2.27,6.28,8.66,8.66,0,0,1-2.34,6.18A7.4,7.4,0,0,1,9.23,170a6.89,6.89,0,0,1-2.66-.51,8.11,8.11,0,0,1-2.45-1.66v1.75H0v-23Zm4.37,9.8a4.35,4.35,0,0,0-3.26,1.34,4.83,4.83,0,0,0-1.29,3.5,5,5,0,0,0,1.29,3.57,4.33,4.33,0,0,0,3.26,1.36,4.2,4.2,0,0,0,3.2-1.39,4.93,4.93,0,0,0,1.3-3.53,4.86,4.86,0,0,0-1.28-3.49A4.24,4.24,0,0,0,8.49,156.43Z"/><path class="cls-1" d="M17.77,146.63h4.16v23H17.77Z"/><path class="cls-1" d="M23.35,153h4.2v8a10.87,10.87,0,0,0,.32,3.24,2.74,2.74,0,0,0,1,1.4,2.89,2.89,0,0,0,1.74.51,3,3,0,0,0,1.76-.5,2.89,2.89,0,0,0,1.08-1.45,11.3,11.3,0,0,0,.26-3.06V153h4.15v7a17.4,17.4,0,0,1-.68,5.93,6.49,6.49,0,0,1-2.47,3,7.56,7.56,0,0,1-4.14,1,7.35,7.35,0,0,1-4.4-1.22,6.38,6.38,0,0,1-2.36-3.39,20.29,20.29,0,0,1-.49-5.48Z"/><path class="cls-1" d="M51.94,153h4.15v16.56H51.94v-1.75a8.2,8.2,0,0,1-2.44,1.66,6.84,6.84,0,0,1-2.65.51,7.37,7.37,0,0,1-5.55-2.49A8.66,8.66,0,0,1,39,161.33a8.87,8.87,0,0,1,2.27-6.28,7.19,7.19,0,0,1,5.5-2.45,7.06,7.06,0,0,1,2.79.56,7.75,7.75,0,0,1,2.42,1.69Zm-4.37,3.41a4.23,4.23,0,0,0-3.2,1.36,4.9,4.9,0,0,0-1.27,3.49,5,5,0,0,0,1.29,3.53,4.2,4.2,0,0,0,3.2,1.39,4.3,4.3,0,0,0,3.24-1.36,5,5,0,0,0,1.29-3.57,4.83,4.83,0,0,0-1.29-3.5A4.33,4.33,0,0,0,47.57,156.43Z"/><path class="cls-1" d="M68.08,155.34l-2.57,2.57a4.31,4.31,0,0,0-2.84-1.55,1.8,1.8,0,0,0-1.1.29.9.9,0,0,0-.14,1.36,4.86,4.86,0,0,0,1.24.76l1.52.76a9.11,9.11,0,0,1,3.3,2.42,5,5,0,0,1-.72,6.57A6.18,6.18,0,0,1,62.43,170a6.9,6.9,0,0,1-5.79-2.83l2.56-2.78a5.94,5.94,0,0,0,1.71,1.37,3.84,3.84,0,0,0,1.74.53,2.07,2.07,0,0,0,1.33-.4,1.15,1.15,0,0,0,.5-.91c0-.64-.61-1.26-1.81-1.87l-1.4-.7q-4-2-4-5.07A4.41,4.41,0,0,1,58.77,154a5.47,5.47,0,0,1,3.87-1.39,6.62,6.62,0,0,1,3,.71A6.53,6.53,0,0,1,68.08,155.34Z"/><path class="cls-1" d="M79.45,155.34l-2.57,2.57A4.31,4.31,0,0,0,74,156.36a1.8,1.8,0,0,0-1.1.29A.9.9,0,0,0,72.8,158a4.86,4.86,0,0,0,1.24.76l1.52.76a9.11,9.11,0,0,1,3.3,2.42,5,5,0,0,1-.72,6.57A6.19,6.19,0,0,1,73.79,170,6.9,6.9,0,0,1,68,167.17l2.56-2.78a5.94,5.94,0,0,0,1.71,1.37,3.77,3.77,0,0,0,1.74.53,2.07,2.07,0,0,0,1.33-.4,1.15,1.15,0,0,0,.5-.91c0-.64-.61-1.26-1.81-1.87l-1.4-.7q-4-2-4-5.07A4.41,4.41,0,0,1,70.14,154,5.45,5.45,0,0,1,74,152.6a6.73,6.73,0,0,1,5.44,2.74Z"/><path class="cls-1" d="M82.31,146.21a2.52,2.52,0,0,1,1.87.79,2.61,2.61,0,0,1,.79,1.92,2.57,2.57,0,0,1-.78,1.89,2.61,2.61,0,0,1-3.74,0,2.65,2.65,0,0,1-.78-1.93,2.65,2.65,0,0,1,2.64-2.65ZM80.24,153h4.15v16.56H80.24Z"/><path class="cls-1" d="M96,155.34l-2.57,2.57a4.35,4.35,0,0,0-2.85-1.55,1.74,1.74,0,0,0-1.09.29.89.89,0,0,0-.4.74.91.91,0,0,0,.25.62,4.86,4.86,0,0,0,1.24.76l1.52.76a9.11,9.11,0,0,1,3.3,2.42,5,5,0,0,1-.72,6.57A6.18,6.18,0,0,1,90.3,170a6.89,6.89,0,0,1-5.78-2.83l2.55-2.78a5.94,5.94,0,0,0,1.71,1.37,3.84,3.84,0,0,0,1.75.53,2.06,2.06,0,0,0,1.32-.4,1.15,1.15,0,0,0,.5-.91c0-.64-.6-1.26-1.81-1.87l-1.4-.7q-4-2-4-5.07A4.41,4.41,0,0,1,86.64,154a5.49,5.49,0,0,1,3.87-1.39A6.73,6.73,0,0,1,96,155.34Z"/><path class="cls-1" d="M97.7,146.92h4.15V153h2.47v3.58h-2.47v13H97.7v-13H95.57V153H97.7Z"/><path class="cls-1" d="M116.41,153h4.16v16.56h-4.16v-1.75a8.17,8.17,0,0,1-2.43,1.66,6.85,6.85,0,0,1-2.66.51,7.36,7.36,0,0,1-5.54-2.49,8.66,8.66,0,0,1-2.34-6.18,8.87,8.87,0,0,1,2.26-6.28,7.19,7.19,0,0,1,5.5-2.45,7.11,7.11,0,0,1,2.8.56,7.71,7.71,0,0,1,2.41,1.69Zm-4.36,3.41a4.22,4.22,0,0,0-3.2,1.36,4.91,4.91,0,0,0-1.28,3.49,5,5,0,0,0,1.3,3.53,4.19,4.19,0,0,0,3.19,1.39,4.31,4.31,0,0,0,3.25-1.36,5,5,0,0,0,1.29-3.57,4.83,4.83,0,0,0-1.29-3.5A4.35,4.35,0,0,0,112.05,156.43Z"/><path class="cls-1" d="M122.43,153h4.15v1.7a10.13,10.13,0,0,1,2.56-1.66,6.22,6.22,0,0,1,2.35-.46,5.64,5.64,0,0,1,4.17,1.72,5.86,5.86,0,0,1,1.45,4.32v10.94H133v-7.25a19,19,0,0,0-.26-3.94,2.71,2.71,0,0,0-.93-1.48,2.58,2.58,0,0,0-1.63-.51,3.05,3.05,0,0,0-2.16.84,4.53,4.53,0,0,0-1.26,2.34,18.88,18.88,0,0,0-.18,3.35v6.65h-4.15Z"/><path class="cls-1" d="M155,156.37l-3.46,1.9a5.74,5.74,0,0,0-1.93-1.41,5.62,5.62,0,0,0-2.23-.4,5.19,5.19,0,0,0-3.77,1.39,4.72,4.72,0,0,0-1.43,3.56,4.59,4.59,0,0,0,1.38,3.45,5,5,0,0,0,3.64,1.34,5.3,5.3,0,0,0,4.34-1.9l3.28,2.24a10.09,10.09,0,0,1-14.36.87,8.6,8.6,0,0,1,2.09-13.66,10,10,0,0,1,4.81-1.15,9.81,9.81,0,0,1,4.43,1A8.31,8.31,0,0,1,155,156.37Z"/><path class="cls-1" d="M173,162.5H159.64a4.42,4.42,0,0,0,1.54,2.81,4.87,4.87,0,0,0,3.2,1,5.51,5.51,0,0,0,4-1.63l3.5,1.64a8.17,8.17,0,0,1-3.13,2.75,9.89,9.89,0,0,1-4.34.89,8.56,8.56,0,0,1-6.34-2.46,8.34,8.34,0,0,1-2.45-6.15,8.63,8.63,0,0,1,2.44-6.29,8.2,8.2,0,0,1,6.12-2.5,8.49,8.49,0,0,1,6.36,2.5,9.06,9.06,0,0,1,2.45,6.61Zm-4.16-3.27A4.14,4.14,0,0,0,167.2,157a4.69,4.69,0,0,0-2.81-.87,5,5,0,0,0-3,1,5.31,5.31,0,0,0-1.52,2.14Z"/><path class="cls-2" d="M160.4,8.56a6.65,6.65,0,1,0,6.67-6.62A6.63,6.63,0,0,0,160.4,8.56Zm1.2,0a5.45,5.45,0,1,1,10.9,0,5.46,5.46,0,1,1-10.9,0Zm2.89,3.91h1.2V9.12H167l2.11,3.35h1.29L168.15,9a2,2,0,0,0,2-2.11c0-1.5-.86-2.22-2.7-2.22h-3Zm1.2-6.79h1.59c.81,0,1.7.15,1.7,1.19,0,1.22-1,1.28-2,1.28h-1.25Z"/><path class="cls-1" d="M123.34,26.75a51.91,51.91,0,0,0-73.42,73.41,51.91,51.91,0,0,0,73.42-73.41ZM86.66,93.83A30.38,30.38,0,1,1,117,63.45,30.38,30.38,0,0,1,86.66,93.83Z"/><path class="cls-1" d="M148.28,53A62.62,62.62,0,0,0,39.68,21.38L32.59,0H.43l25,74.28a62.61,62.61,0,0,0,61.27,50.88,62.14,62.14,0,0,0,46.76-20.94l7.26,21.69h32.16ZM86.63,117.21a53.76,53.76,0,1,1,53.75-53.75A53.76,53.76,0,0,1,86.63,117.21Z"/></g></g></svg>