<svg xmlns="http://www.w3.org/2000/svg" viewBox="0 0 327.12 158"><defs><style>.cls-1,.cls-2{fill:#1d4386;}.cls-1{fill-rule:evenodd;}.cls-3{fill:#6d6e70;}</style></defs><title>Recurso 26</title><g id="Capa_2" data-name="Capa 2"><g id="BASE"><path class="cls-1" d="M252.63,6.81a6.26,6.26,0,1,0,12.51,0,6.26,6.26,0,0,0-12.51,0Zm1.13,0a5.13,5.13,0,1,1,10.25,0,5.13,5.13,0,1,1-10.25,0Zm2.71,3.68h1.14V7.35h1.19l2,3.14H262l-2.08-3.23a1.87,1.87,0,0,0,1.91-2c0-1.4-.82-2.09-2.55-2.09h-2.81Zm1.14-6.39h1.49c.76,0,1.6.15,1.6,1.12,0,1.16-.92,1.21-1.92,1.21h-1.17Z"/><path class="cls-2" d="M82.84,57c-1.69,0-2-.79-.56-1.77l32.75-23a11.52,11.52,0,0,1,5.61-1.77h80.09c1.69,0,1.94.8.55,1.77L168.84,55a5.89,5.89,0,0,1-5.32.47l-30.15-14a5.82,5.82,0,0,0-5.3.5L109.62,55.18A11.33,11.33,0,0,1,104,57Z"/><path class="cls-2" d="M244.27,0c1.7,0,1.95.8.56,1.77l-32.75,23a11.38,11.38,0,0,1-5.6,1.77H126.39c-1.7,0-2-.79-.56-1.77L158.27,2a6,6,0,0,1,5.32-.47l30.15,14a5.85,5.85,0,0,0,5.3-.5L217.49,1.8A11.28,11.28,0,0,1,223.08,0Z"/><path class="cls-3" d="M2.6,81.86H7v44.4H2.6Z"/><path class="cls-3" d="M29.6,126.26V81.86h1l29.55,34v-34H64.5v44.4h-1L34.19,92.64v33.62Z"/><path class="cls-3" d="M83.26,86.2V81.86h24.33V86.2h-9.9v40.06H93.16V86.2Z"/><path class="cls-3" d="M126.38,81.86h25.44V86.2h-21v13.92h20.82v4.35H130.82v17.44h20.82v4.35H126.38Z"/><path class="cls-3" d="M214.68,89.31l-3.44,3.26A26.3,26.3,0,0,0,203.11,87a22,22,0,0,0-8.62-1.88,20.57,20.57,0,0,0-10,2.56,18.74,18.74,0,0,0-7.32,7,18,18,0,0,0-2.59,9.28,18.31,18.31,0,0,0,2.69,9.52,19.06,19.06,0,0,0,7.42,7.1,21.36,21.36,0,0,0,10.38,2.58,17.72,17.72,0,0,0,11.59-3.87,15.25,15.25,0,0,0,5.62-10H198.17V105h19.14q-.06,10.29-6.11,16.34T195,127.37q-12.31,0-19.49-8.39A22.25,22.25,0,0,1,170,104a22.91,22.91,0,0,1,3.17-11.74,22.6,22.6,0,0,1,8.69-8.5,25.38,25.38,0,0,1,12.5-3.06,27.74,27.74,0,0,1,10.62,2A31.88,31.88,0,0,1,214.68,89.31Z"/><path class="cls-3" d="M238.36,81.86h8.85a54,54,0,0,1,10,.6,11.42,11.42,0,0,1,6.43,3.88,11.09,11.09,0,0,1,2.47,7.33,11.9,11.9,0,0,1-1.7,6.38,10.68,10.68,0,0,1-4.88,4.16,22.52,22.52,0,0,1-8.75,1.43l16,20.62h-5.49l-16-20.62H242.8v20.62h-4.44Zm4.44,4.34v15.09l7.65.07a19.15,19.15,0,0,0,6.58-.85,6.82,6.82,0,0,0,3.32-2.7,7.49,7.49,0,0,0,1.2-4.15,7.25,7.25,0,0,0-1.21-4.06A6.73,6.73,0,0,0,257.16,87a19.36,19.36,0,0,0-6.53-.79Z"/><path class="cls-3" d="M306.14,81.86l20.71,44.4h-4.79l-7-14.61H296L289,126.26h-4.95l21-44.4Zm-.56,9.43L298,107.36h15.17Z"/><path class="cls-3" d="M0,154.32l1.48-.88q1.56,2.87,3.6,2.87a3.51,3.51,0,0,0,1.65-.41,2.85,2.85,0,0,0,1.57-2.55,3,3,0,0,0-.59-1.71,14.52,14.52,0,0,0-3-2.79A15.6,15.6,0,0,1,2,146.47a4.36,4.36,0,0,1-.92-2.66,4.1,4.1,0,0,1,.54-2.07,4,4,0,0,1,1.53-1.47,4.42,4.42,0,0,1,2.15-.53,4.62,4.62,0,0,1,2.3.6,8,8,0,0,1,2.26,2.24l-1.42,1.08a6.82,6.82,0,0,0-1.67-1.72,2.93,2.93,0,0,0-1.51-.41,2.38,2.38,0,0,0-1.72.64,2.11,2.11,0,0,0-.66,1.57,2.78,2.78,0,0,0,.23,1.1A4.06,4.06,0,0,0,4,146c.22.22,1,.8,2.24,1.74a12.51,12.51,0,0,1,3.1,3,4.74,4.74,0,0,1,.84,2.61,4.42,4.42,0,0,1-1.44,3.28A4.81,4.81,0,0,1,5.25,158a5.06,5.06,0,0,1-2.87-.85A7.6,7.6,0,0,1,0,154.32Z"/><path class="cls-3" d="M19.92,140.17h10v1.71H21.66v5.44h8.15V149H21.66v6.83h8.15v1.7H19.92Z"/><path class="cls-3" d="M55.72,143.09l-1.35,1.28a10.27,10.27,0,0,0-3.19-2.17,8.6,8.6,0,0,0-3.37-.74,8.07,8.07,0,0,0-3.9,1,7.15,7.15,0,0,0-2.86,2.72,7,7,0,0,0-1,3.64,7.22,7.22,0,0,0,1,3.73A7.46,7.46,0,0,0,44,155.33a8.31,8.31,0,0,0,4.07,1,7,7,0,0,0,4.54-1.52,6,6,0,0,0,2.19-3.92H49.25v-1.68h7.49a8.69,8.69,0,0,1-2.39,6.4A8.56,8.56,0,0,1,48,158a9.54,9.54,0,0,1-7.64-3.29,8.72,8.72,0,0,1-2.16-5.85,9,9,0,0,1,1.24-4.6,8.82,8.82,0,0,1,3.4-3.32,9.86,9.86,0,0,1,4.9-1.2,10.92,10.92,0,0,1,4.16.79A12.51,12.51,0,0,1,55.72,143.09Z"/><path class="cls-3" d="M66.17,140.17H67.9v10.5c0,1.25,0,2,.07,2.33a3.87,3.87,0,0,0,.61,1.72A3.53,3.53,0,0,0,70,155.88a4.6,4.6,0,0,0,2,.47,4,4,0,0,0,1.65-.37A3.73,3.73,0,0,0,75,155a4.29,4.29,0,0,0,.78-1.57,13.84,13.84,0,0,0,.17-2.72v-10.5h1.74v10.5a13,13,0,0,1-.45,3.77,5.16,5.16,0,0,1-1.83,2.5A5.26,5.26,0,0,1,72.1,158a6.39,6.39,0,0,1-3.6-1,4.76,4.76,0,0,1-2-2.67,13.71,13.71,0,0,1-.32-3.66Z"/><path class="cls-3" d="M88.11,140.17h3.46a20.81,20.81,0,0,1,3.93.24A4.45,4.45,0,0,1,98,141.93a4.32,4.32,0,0,1,1,2.87,4.69,4.69,0,0,1-.66,2.5,4.16,4.16,0,0,1-1.91,1.62,8.75,8.75,0,0,1-3.43.57l6.25,8.07H97.08l-6.25-8.07h-1v8.07H88.11Zm1.74,1.71v5.9l3,0a7.51,7.51,0,0,0,2.58-.33,2.72,2.72,0,0,0,1.3-1.06,3,3,0,0,0,.47-1.63,2.81,2.81,0,0,0-.48-1.59,2.68,2.68,0,0,0-1.24-1,7.74,7.74,0,0,0-2.56-.3Z"/><path class="cls-3" d="M117,139.74a9,9,0,0,1,6.61,2.63A9.14,9.14,0,0,1,117.18,158a8.91,8.91,0,0,1-6.53-2.65,8.71,8.71,0,0,1-2.66-6.41,9.31,9.31,0,0,1,1.21-4.64,9,9,0,0,1,7.84-4.56Zm.08,1.69a7.15,7.15,0,0,0-3.66,1,7.31,7.31,0,0,0-2.7,2.71,7.51,7.51,0,0,0-1,3.8,7.32,7.32,0,0,0,7.33,7.37,7.5,7.5,0,0,0,3.75-1,7.07,7.07,0,0,0,2.68-2.69,7.49,7.49,0,0,0,1-3.78,7.39,7.39,0,0,0-7.4-7.43Z"/><path class="cls-3" d="M134.06,154.32l1.48-.88q1.56,2.87,3.6,2.87a3.51,3.51,0,0,0,1.65-.41,2.85,2.85,0,0,0,1.57-2.55,3,3,0,0,0-.59-1.71,14.52,14.52,0,0,0-3-2.79,15.6,15.6,0,0,1-2.71-2.38,4.36,4.36,0,0,1-.92-2.66,4.1,4.1,0,0,1,.54-2.07,3.94,3.94,0,0,1,1.53-1.47,4.42,4.42,0,0,1,2.15-.53,4.62,4.62,0,0,1,2.3.6,8,8,0,0,1,2.26,2.24l-1.42,1.08a6.82,6.82,0,0,0-1.67-1.72,2.93,2.93,0,0,0-1.51-.41,2.38,2.38,0,0,0-1.72.64,2.11,2.11,0,0,0-.66,1.57,2.62,2.62,0,0,0,.23,1.1,4.06,4.06,0,0,0,.87,1.16c.22.22,1,.8,2.24,1.74a12.51,12.51,0,0,1,3.1,3,4.74,4.74,0,0,1,.84,2.61,4.42,4.42,0,0,1-1.44,3.28,4.83,4.83,0,0,1-3.49,1.4,5,5,0,0,1-2.87-.85A7.6,7.6,0,0,1,134.06,154.32Z"/><path class="cls-3" d="M165.35,140.17h2l4.45,7.17,4.38-7.17h2l-5.51,9.08v8.31H171v-8.31Z"/><path class="cls-3" d="M199.86,140.17h8.71v1.71h-7v5.44h7V149h-7v8.53h-1.74Z"/><path class="cls-3" d="M217.4,140.17h1.74v17.39H217.4Z"/><path class="cls-3" d="M236.28,140.17l8.11,17.39h-1.87l-2.74-5.72h-7.49l-2.71,5.72h-1.94l8.22-17.39Zm-.22,3.7-3,6.29H239Z"/><path class="cls-3" d="M253.15,157.56V140.17h.38L265.1,153.5V140.17h1.72v17.39h-.39L255,144.39v13.17Z"/><path class="cls-3" d="M276.43,141.85v-1.68h9.17l-7.26,15.69h6.9v1.7h-9.59L283,141.85Z"/><path class="cls-3" d="M301.88,140.17,310,157.56h-1.87l-2.74-5.72h-7.49l-2.71,5.72h-1.94l8.22-17.39Zm-.22,3.7-3,6.29h5.95Z"/><path class="cls-3" d="M316.94,154.32l1.48-.88q1.56,2.87,3.61,2.87a3.47,3.47,0,0,0,1.64-.41,2.94,2.94,0,0,0,1.17-1.09,2.82,2.82,0,0,0,.4-1.46,3,3,0,0,0-.59-1.71,14.26,14.26,0,0,0-3-2.79,15.6,15.6,0,0,1-2.71-2.38,4.36,4.36,0,0,1-.92-2.66,4,4,0,0,1,.55-2.07,3.87,3.87,0,0,1,1.53-1.47,4.35,4.35,0,0,1,2.14-.53,4.62,4.62,0,0,1,2.3.6,8,8,0,0,1,2.26,2.24l-1.41,1.08a7,7,0,0,0-1.67-1.72,3,3,0,0,0-1.51-.41,2.36,2.36,0,0,0-1.72.64,2.08,2.08,0,0,0-.67,1.57,2.78,2.78,0,0,0,.23,1.1,4.06,4.06,0,0,0,.87,1.16c.23.22,1,.8,2.24,1.74a12.51,12.51,0,0,1,3.1,3,4.74,4.74,0,0,1,.84,2.61,4.42,4.42,0,0,1-1.44,3.28,4.81,4.81,0,0,1-3.49,1.4,5.09,5.09,0,0,1-2.87-.85A7.69,7.69,0,0,1,316.94,154.32Z"/></g></g></svg>