<svg xmlns="http://www.w3.org/2000/svg" viewBox="0 0 172.74 170"><defs><style>.cls-1,.cls-4{fill:#1d4386;}.cls-2{fill:#00a5e3;}.cls-3{fill:#44c7f4;}.cls-4{fill-rule:evenodd;}.cls-5{fill:#abe0f9;}</style></defs><title>Recurso 29</title><g id="Capa_2" data-name="Capa 2"><g id="BASE"><polygon class="cls-1" points="66.3 49.32 55.88 49.29 55.91 39.4 66.33 39.4 66.3 49.32"/><polygon class="cls-1" points="66.37 53.66 66.37 113.54 51.28 113.54 51.28 106.97 56.42 106.97 56.42 60.22 51.28 60.22 51.28 53.66 66.37 53.66"/><path class="cls-2" d="M86,60.47a29.06,29.06,0,0,1,19.17-6.93l-.83,7.18q-7.86,0-13.12,6.69T86,83.54v30H70.88V107H76V60.26H70.88V53.62H86Z"/><polygon class="cls-3" points="119.65 33.48 119.65 113.54 104.56 113.54 104.56 106.97 109.7 106.97 109.7 40.04 109.7 40.04 109.7 33.48 119.65 33.48"/><path class="cls-1" d="M47.73,121.77a1.51,1.51,0,0,0-.53-.82,1.48,1.48,0,0,0-1-.32,1.38,1.38,0,0,0-.9.26,1,1,0,0,0-.33.75.74.74,0,0,0,.12.42,1.21,1.21,0,0,0,.35.32,2.84,2.84,0,0,0,.46.24l.65.26.83.34a2.45,2.45,0,0,1,.63.36,1.49,1.49,0,0,1,.47.53,1.36,1.36,0,0,1,.18.71,2.48,2.48,0,0,1-.11.73,1.75,1.75,0,0,1-.37.61,2,2,0,0,1-.69.43,2.88,2.88,0,0,1-1,.16,2.5,2.5,0,0,1-.9-.15,2,2,0,0,1-.65-.39,2.81,2.81,0,0,1-.45-.54,4.67,4.67,0,0,1-.34-.63l.66-.23a2.42,2.42,0,0,0,.64,1,1.83,1.83,0,0,0,2.15,0,1.06,1.06,0,0,0,.37-.85.88.88,0,0,0-.13-.49,1.18,1.18,0,0,0-.36-.38,3.53,3.53,0,0,0-.5-.28l-.7-.27c-.33-.12-.59-.23-.8-.32a3.47,3.47,0,0,1-.59-.34,1.72,1.72,0,0,1-.44-.49,1.34,1.34,0,0,1-.16-.68,1.45,1.45,0,0,1,.14-.66,1.66,1.66,0,0,1,.4-.55,1.93,1.93,0,0,1,.63-.35,2.28,2.28,0,0,1,.8-.13,2.16,2.16,0,0,1,1.34.41,2.24,2.24,0,0,1,.82,1.21Z"/><path class="cls-1" d="M54.12,120.1v.62H50.91v2.2H53.2v.61H50.91V126H54.3v.62H50.19V120.1Z"/><path class="cls-1" d="M60.09,123.51v3.15h-.6v-.6h0a1.51,1.51,0,0,1-.7.51,2.71,2.71,0,0,1-1,.18,2.29,2.29,0,0,1-1.87-.85,4.89,4.89,0,0,1,0-5,2.29,2.29,0,0,1,1.87-.85,2.32,2.32,0,0,1,1.47.46,2.73,2.73,0,0,1,.89,1.46l-.69.14a2.31,2.31,0,0,0-.64-1.1,1.48,1.48,0,0,0-1-.34,1.7,1.7,0,0,0-.71.14,1.61,1.61,0,0,0-.6.46,2.46,2.46,0,0,0-.41.86,5.62,5.62,0,0,0,0,2.58,2.46,2.46,0,0,0,.41.86,1.51,1.51,0,0,0,.59.46,2,2,0,0,0,.72.14,1.52,1.52,0,0,0,1.17-.41,1.41,1.41,0,0,0,.4-1v-.56H57.88v-.61Z"/><path class="cls-1" d="M62.53,120.1v4.63a1.31,1.31,0,0,0,.41,1,1.87,1.87,0,0,0,2.31,0,1.31,1.31,0,0,0,.42-1V120.1h.73v4.58a1.87,1.87,0,0,1-.64,1.51,2.37,2.37,0,0,1-1.66.56,2.39,2.39,0,0,1-1.67-.56,1.89,1.89,0,0,1-.63-1.51V120.1Z"/><path class="cls-1" d="M68.29,126.66V120.1h2.1a2.52,2.52,0,0,1,1.62.45,1.53,1.53,0,0,1,.57,1.28,1.64,1.64,0,0,1-.34,1.08,2,2,0,0,1-1,.62l1.39,3.13h-.79l-1.32-3H69v3Zm.72-3.6h1.32a1.93,1.93,0,0,0,1.15-.29,1.09,1.09,0,0,0,.38-.91,1,1,0,0,0-.39-.88,2.06,2.06,0,0,0-1.15-.26H69Z"/><path class="cls-1" d="M74.57,120.88a2.49,2.49,0,0,1,3.78,0,4.94,4.94,0,0,1,0,5,2.49,2.49,0,0,1-3.78,0,5,5,0,0,1,0-5Zm.53,4.56a1.69,1.69,0,0,0,2.72,0,4.66,4.66,0,0,0,0-4.12,1.69,1.69,0,0,0-2.72,0,4.75,4.75,0,0,0,0,4.12Z"/><path class="cls-1" d="M83.57,121.77A1.51,1.51,0,0,0,83,121a1.48,1.48,0,0,0-1-.32,1.33,1.33,0,0,0-.89.26,1,1,0,0,0-.34.75.68.68,0,0,0,.13.42,1.05,1.05,0,0,0,.34.32,3.33,3.33,0,0,0,.46.24c.16.07.37.16.65.26s.62.24.84.34a2.57,2.57,0,0,1,.62.36,1.49,1.49,0,0,1,.47.53,1.36,1.36,0,0,1,.18.71,2.48,2.48,0,0,1-.11.73,1.75,1.75,0,0,1-.37.61,2,2,0,0,1-.69.43,2.88,2.88,0,0,1-1,.16,2.48,2.48,0,0,1-.89-.15,2.14,2.14,0,0,1-.66-.39,2.81,2.81,0,0,1-.45-.54A4.67,4.67,0,0,1,80,125l.66-.23a2.42,2.42,0,0,0,.64,1,1.83,1.83,0,0,0,2.15,0,1.07,1.07,0,0,0,.38-.85.88.88,0,0,0-.14-.49,1.18,1.18,0,0,0-.36-.38,3.53,3.53,0,0,0-.5-.28l-.7-.27c-.33-.12-.59-.23-.8-.32a3,3,0,0,1-.58-.34,1.47,1.47,0,0,1-.44-.49,1.25,1.25,0,0,1-.17-.68,1.45,1.45,0,0,1,.14-.66,1.66,1.66,0,0,1,.4-.55,1.93,1.93,0,0,1,.63-.35,2.28,2.28,0,0,1,.8-.13,2.16,2.16,0,0,1,1.34.41,2.24,2.24,0,0,1,.82,1.21Z"/><path class="cls-2" d="M90.46,123.5a6,6,0,0,1-.3,1.07,4,4,0,0,1-.43.88,1.79,1.79,0,0,0,.54.39,1.4,1.4,0,0,0,.54.17v.65h-.24a1.42,1.42,0,0,1-.62-.19,3.18,3.18,0,0,1-.67-.46,2.3,2.3,0,0,1-.79.55,2.78,2.78,0,0,1-1.08.19,2.1,2.1,0,0,1-.74-.13,2.25,2.25,0,0,1-.63-.38,1.84,1.84,0,0,1-.43-.6,1.8,1.8,0,0,1-.16-.77,1.68,1.68,0,0,1,.4-1.1,4.21,4.21,0,0,1,1-.88,3.84,3.84,0,0,1-.36-.76,2.54,2.54,0,0,1-.15-.81,1.2,1.2,0,0,1,.4-.94,1.48,1.48,0,0,1,1.07-.37,1.44,1.44,0,0,1,1,.32,1.13,1.13,0,0,1,.38.89,1.21,1.21,0,0,1-.12.53,1.87,1.87,0,0,1-.33.48,4.17,4.17,0,0,1-.43.41,5.88,5.88,0,0,1-.5.38,8.65,8.65,0,0,0,.67,1q.39.49.81,1a2.82,2.82,0,0,0,.34-.68,5.21,5.21,0,0,0,.25-1Zm-3.89,2.31a1.42,1.42,0,0,0,.93.32,1.88,1.88,0,0,0,.74-.14,2.12,2.12,0,0,0,.59-.4c-.32-.37-.62-.73-.9-1.1s-.53-.74-.76-1.1a3,3,0,0,0-.74.65,1.39,1.39,0,0,0-.26.87A1.1,1.1,0,0,0,86.57,125.81Zm.63-3.89a5.18,5.18,0,0,0,.26.6,2.87,2.87,0,0,0,.69-.6,1,1,0,0,0,.3-.68.63.63,0,0,0-.2-.48.62.62,0,0,0-.46-.19.64.64,0,0,0-.52.23.83.83,0,0,0-.19.54A1.54,1.54,0,0,0,87.2,121.92Z"/><path class="cls-1" d="M95.9,120.1v.62H92.74v2.2h2.35v.61H92.74v3.13H92V120.1Z"/><path class="cls-1" d="M98,120.1v6.56H97.3V120.1Z"/><path class="cls-1" d="M99.4,126.66l2-6.56h1.08l2,6.56h-.77l-.61-2h-2.36l-.62,2ZM101,124h2l-.94-3.38h-.1Z"/><path class="cls-1" d="M105.72,126.66V120.1h1l2.86,5.05h0V120.1h.65v6.56h-.6l-3.32-5.85h0v5.85Z"/><path class="cls-1" d="M115.94,126.66H111.7v-.53l3.29-5.41h-3v-.62h3.9v.47L112.56,126h3.38Z"/><path class="cls-1" d="M116.56,126.66l2-6.56h1.08l2,6.56h-.76l-.62-2h-2.36l-.61,2Zm1.57-2.67h2l-.94-3.38h-.1Z"/><path class="cls-1" d="M126,121.77a1.55,1.55,0,0,0-.52-.82,1.53,1.53,0,0,0-1-.32,1.33,1.33,0,0,0-.89.26,1,1,0,0,0-.34.75.75.75,0,0,0,.13.42,1.05,1.05,0,0,0,.34.32,2.84,2.84,0,0,0,.46.24c.16.07.38.16.66.26l.83.34a2.57,2.57,0,0,1,.62.36,1.62,1.62,0,0,1,.48.53,1.46,1.46,0,0,1,.17.71,2.48,2.48,0,0,1-.11.73,1.75,1.75,0,0,1-.37.61,1.89,1.89,0,0,1-.69.43,2.86,2.86,0,0,1-1,.16,2.5,2.5,0,0,1-.9-.15,1.92,1.92,0,0,1-.66-.39,2.81,2.81,0,0,1-.45-.54,4.67,4.67,0,0,1-.34-.63l.66-.23a2.53,2.53,0,0,0,.64,1,1.83,1.83,0,0,0,2.15,0,1.07,1.07,0,0,0,.38-.85.88.88,0,0,0-.14-.49,1.18,1.18,0,0,0-.36-.38,3.53,3.53,0,0,0-.5-.28l-.7-.27-.8-.32a3,3,0,0,1-.58-.34,1.47,1.47,0,0,1-.44-.49,1.25,1.25,0,0,1-.17-.68,1.45,1.45,0,0,1,.14-.66,1.66,1.66,0,0,1,.4-.55,1.93,1.93,0,0,1,.63-.35,2.28,2.28,0,0,1,.8-.13,2.16,2.16,0,0,1,1.34.41,2.24,2.24,0,0,1,.82,1.21Z"/><path class="cls-4" d="M159.45,7.5A6.63,6.63,0,1,0,166.1.9,6.6,6.6,0,0,0,159.45,7.5Zm1.2,0a5.43,5.43,0,1,1,10.86,0,5.44,5.44,0,1,1-10.86,0Zm2.87,3.9h1.2V8.06H166l2.1,3.34h1.29L167.17,8a2,2,0,0,0,2-2.11c0-1.48-.86-2.21-2.7-2.21h-3Zm1.2-6.77h1.59c.81,0,1.69.15,1.69,1.18,0,1.23-1,1.28-2,1.28h-1.25Z"/><path class="cls-3" d="M33.68,33.33a75,75,0,0,1,43.84-21V.43a87.68,87.68,0,0,0-43.84,17.2Z"/><path class="cls-3" d="M77.52,169.57V157.66a74.9,74.9,0,0,1-43.84-21v15.71A87.68,87.68,0,0,0,77.52,169.57Z"/><path class="cls-1" d="M155.08,136.49a83.89,83.89,0,0,0,0-103V57a72.3,72.3,0,0,1,0,56Z"/><path class="cls-2" d="M136.53,15.71V30.86a78.67,78.67,0,0,1,18.55,26.06V33.47A89,89,0,0,0,136.53,15.71Z"/><path class="cls-2" d="M155.08,136.53V113.07a78.53,78.53,0,0,1-18.55,26.05v15.17A89,89,0,0,0,155.08,136.53Z"/><path class="cls-1" d="M19.52,31.19A82.34,82.34,0,0,0,0,85,82.33,82.33,0,0,0,19.52,138.8V117A68.59,68.59,0,0,1,12,85a68.58,68.58,0,0,1,7.49-32Z"/><path class="cls-2" d="M33.68,152.37V136.66A69,69,0,0,1,19.52,117V138.8A76.07,76.07,0,0,0,33.68,152.37Z"/><path class="cls-2" d="M19.52,31.19V53A68.87,68.87,0,0,1,33.68,33.33V17.63A76,76,0,0,0,19.52,31.19Z"/><path class="cls-5" d="M77.52,12.33c2-.25,4.38-.41,6.41-.48V0c-2,.06-4.39.19-6.41.41Z"/><path class="cls-5" d="M83.93,158.13c-2-.06-4.39-.22-6.41-.47v11.9c2,.22,4.38.35,6.41.41Z"/><path class="cls-3" d="M83.93,0V11.85c1,0,1.64,0,2.44,0,2.57,0,5,.13,7.67.38V.33C91.35.12,88.93,0,86.37,0Z"/><path class="cls-3" d="M94,169.67V157.8c-2.69.25-5.1.37-7.67.37-.8,0-1.43,0-2.44,0V170l2.44,0C88.93,170,91.35,169.88,94,169.67Z"/><path class="cls-2" d="M93,12.1A88.76,88.76,0,0,1,104.5,14V1.86A102.22,102.22,0,0,0,93,.24Z"/><path class="cls-2" d="M104.5,156A90.52,90.52,0,0,1,93,157.89v11.87a102.22,102.22,0,0,0,11.47-1.62Z"/><path class="cls-5" d="M104.5,14A71.34,71.34,0,0,1,120,19.74v-13A86.94,86.94,0,0,0,104.5,1.86Z"/><path class="cls-5" d="M120,150.25A71.34,71.34,0,0,1,104.5,156v12.13A86.94,86.94,0,0,0,120,163.29Z"/><path class="cls-3" d="M120,19.74a80.44,80.44,0,0,1,17.53,12V16.43A83.52,83.52,0,0,0,120,6.71Z"/><path class="cls-3" d="M137.54,138.2A80.13,80.13,0,0,1,120,150.25v13a83.52,83.52,0,0,0,17.53-9.72Z"/></g></g></svg>