<svg xmlns="http://www.w3.org/2000/svg" viewBox="0 0 172.89 170"><defs><style>.cls-1,.cls-3{fill:#1d4386;}.cls-2{fill:#6d6e70;}.cls-3{fill-rule:evenodd;}</style></defs><title>Recurso 25</title><g id="Capa_2" data-name="Capa 2"><g id="BASE"><path class="cls-1" d="M86.44,0C38.7,0,0,38.05,0,85s38.7,85,86.44,85,86.45-38.06,86.45-85S134.18,0,86.44,0Zm0,158.17C45.35,158.17,12,125.41,12,85S45.35,11.81,86.44,11.81,160.87,44.58,160.87,85,127.54,158.17,86.44,158.17Z"/><polygon class="cls-2" points="66.3 49.16 55.88 49.13 55.9 39.24 66.32 39.24 66.3 49.16"/><polygon class="cls-2" points="66.36 53.5 66.36 113.38 51.28 113.38 51.28 106.82 56.42 106.82 56.42 60.06 51.28 60.06 51.28 53.5 66.36 53.5"/><path class="cls-2" d="M86,60.31a29.1,29.1,0,0,1,19.18-6.93l-.84,7.18q-7.84,0-13.11,6.69T86,83.38v30H70.88v-6.56H76V60.1H70.88V53.46H86Z"/><polygon class="cls-2" points="119.65 33.32 119.65 113.38 104.56 113.38 104.56 106.82 109.7 106.82 109.7 39.88 109.7 39.88 109.7 33.32 119.65 33.32"/><path class="cls-2" d="M47.72,121.61a1.53,1.53,0,0,0-.52-.82,1.56,1.56,0,0,0-1-.32,1.44,1.44,0,0,0-.9.26,1,1,0,0,0-.33.75.74.74,0,0,0,.12.42,1.3,1.3,0,0,0,.34.32,4,4,0,0,0,.46.24c.16.07.38.16.66.26l.83.34a2.84,2.84,0,0,1,.63.36,1.7,1.7,0,0,1,.47.53,1.37,1.37,0,0,1,.18.72,2.46,2.46,0,0,1-.11.72,1.57,1.57,0,0,1-.38.61,1.73,1.73,0,0,1-.68.43,2.92,2.92,0,0,1-1,.16,2.5,2.5,0,0,1-.9-.15,2.14,2.14,0,0,1-.66-.39,3.79,3.79,0,0,1-.45-.54,4.65,4.65,0,0,1-.33-.63l.66-.23a2.42,2.42,0,0,0,.64.95,1.56,1.56,0,0,0,1.08.37,1.53,1.53,0,0,0,1.07-.33,1.06,1.06,0,0,0,.37-.85.88.88,0,0,0-.13-.49,1.21,1.21,0,0,0-.37-.38,2.69,2.69,0,0,0-.5-.28l-.7-.27c-.32-.12-.58-.22-.79-.32a3.12,3.12,0,0,1-.59-.34,1.48,1.48,0,0,1-.44-.49,1.34,1.34,0,0,1-.17-.68,1.59,1.59,0,0,1,.14-.66,1.55,1.55,0,0,1,.41-.54,1.63,1.63,0,0,1,.63-.36,2.28,2.28,0,0,1,.8-.13,2.15,2.15,0,0,1,2.16,1.62Z"/><path class="cls-2" d="M54.12,119.94v.62H50.91v2.2h2.28v.61H50.91v2.51H54.3v.62H50.19v-6.56Z"/><path class="cls-2" d="M60.09,123.35v3.15h-.6v-.6h0a1.49,1.49,0,0,1-.7.51,2.73,2.73,0,0,1-1,.18,2.29,2.29,0,0,1-1.86-.85,4.89,4.89,0,0,1,0-5,2.29,2.29,0,0,1,1.86-.85,2.37,2.37,0,0,1,1.48.46,2.72,2.72,0,0,1,.89,1.47l-.69.13a2.31,2.31,0,0,0-.65-1.1,1.47,1.47,0,0,0-1-.34,1.7,1.7,0,0,0-.71.14,1.54,1.54,0,0,0-.6.46,2.46,2.46,0,0,0-.41.86,5.62,5.62,0,0,0,0,2.58,2.3,2.3,0,0,0,.41.86,1.51,1.51,0,0,0,.59.46,1.78,1.78,0,0,0,.72.14,1.53,1.53,0,0,0,1.17-.41,1.41,1.41,0,0,0,.4-1V124H57.88v-.61Z"/><path class="cls-2" d="M62.52,119.94v4.63a1.31,1.31,0,0,0,.42,1,1.87,1.87,0,0,0,2.31,0,1.31,1.31,0,0,0,.42-1v-4.63h.72v4.58a1.93,1.93,0,0,1-.63,1.52,2.41,2.41,0,0,1-1.66.55,2.44,2.44,0,0,1-1.67-.55,1.93,1.93,0,0,1-.63-1.52v-4.58Z"/><path class="cls-2" d="M68.28,126.5v-6.56h2.11a2.56,2.56,0,0,1,1.62.45,1.54,1.54,0,0,1,.57,1.28,1.65,1.65,0,0,1-.35,1.08,2,2,0,0,1-1,.62l1.39,3.13h-.79l-1.32-3H69v3Zm.73-3.6h1.32a1.87,1.87,0,0,0,1.14-.29,1.07,1.07,0,0,0,.38-.91,1,1,0,0,0-.39-.88,2.09,2.09,0,0,0-1.14-.26H69Z"/><path class="cls-2" d="M74.57,120.72a2.49,2.49,0,0,1,3.78,0,5,5,0,0,1,0,5,2.49,2.49,0,0,1-3.78,0,5,5,0,0,1,0-5Zm.53,4.56a1.69,1.69,0,0,0,2.72,0,4.66,4.66,0,0,0,0-4.12,1.69,1.69,0,0,0-2.72,0,4.75,4.75,0,0,0,0,4.12Z"/><path class="cls-2" d="M83.56,121.61a1.53,1.53,0,0,0-.52-.82,1.56,1.56,0,0,0-1-.32,1.44,1.44,0,0,0-.9.26,1,1,0,0,0-.33.75.74.74,0,0,0,.12.42,1.21,1.21,0,0,0,.35.32,3.21,3.21,0,0,0,.45.24c.17.07.38.16.66.26l.83.34a2.63,2.63,0,0,1,.63.36,1.7,1.7,0,0,1,.47.53,1.37,1.37,0,0,1,.18.72,2.46,2.46,0,0,1-.11.72A1.57,1.57,0,0,1,84,126a1.73,1.73,0,0,1-.68.43,2.92,2.92,0,0,1-1,.16,2.5,2.5,0,0,1-.9-.15,2.14,2.14,0,0,1-.66-.39,3.79,3.79,0,0,1-.45-.54,4.65,4.65,0,0,1-.33-.63l.66-.23a2.42,2.42,0,0,0,.64.95,1.56,1.56,0,0,0,1.08.37,1.53,1.53,0,0,0,1.07-.33,1.06,1.06,0,0,0,.37-.85.88.88,0,0,0-.13-.49,1.21,1.21,0,0,0-.37-.38,2.69,2.69,0,0,0-.5-.28l-.7-.27c-.32-.12-.58-.22-.79-.32a3.12,3.12,0,0,1-.59-.34,1.6,1.6,0,0,1-.44-.49,1.34,1.34,0,0,1-.17-.68,1.59,1.59,0,0,1,.14-.66,1.68,1.68,0,0,1,.41-.54,1.79,1.79,0,0,1,.63-.36,2.22,2.22,0,0,1,3,1.49Z"/><path class="cls-2" d="M90.46,123.34a8.29,8.29,0,0,1-.3,1.07,3.6,3.6,0,0,1-.44.88,1.8,1.8,0,0,0,.55.39,1.4,1.4,0,0,0,.54.17v.65h-.24a1.42,1.42,0,0,1-.62-.19,2.94,2.94,0,0,1-.67-.46,2.34,2.34,0,0,1-.8.55,2.69,2.69,0,0,1-1.07.19,2.06,2.06,0,0,1-.74-.13,2.25,2.25,0,0,1-.63-.38,1.86,1.86,0,0,1-.44-.6,2,2,0,0,1-.16-.77,1.69,1.69,0,0,1,.41-1.1,4.21,4.21,0,0,1,1-.88,3.35,3.35,0,0,1-.36-.76,2.28,2.28,0,0,1-.16-.81,1.24,1.24,0,0,1,.4-.94,1.52,1.52,0,0,1,1.08-.37,1.44,1.44,0,0,1,1,.33,1.11,1.11,0,0,1,.38.89,1.17,1.17,0,0,1-.12.52,1.87,1.87,0,0,1-.33.48,4.12,4.12,0,0,1-.43.41,5.88,5.88,0,0,1-.5.38,7.56,7.56,0,0,0,.67,1q.39.49.81,1a2.82,2.82,0,0,0,.34-.68,5.21,5.21,0,0,0,.25-1Zm-3.89,2.32a1.47,1.47,0,0,0,.93.31,1.91,1.91,0,0,0,.74-.14,2.07,2.07,0,0,0,.58-.4c-.31-.37-.61-.73-.89-1.1s-.53-.74-.76-1.1a2.86,2.86,0,0,0-.74.65,1.39,1.39,0,0,0-.26.87A1.1,1.1,0,0,0,86.57,125.66Zm.62-3.9q.12.3.27.6a2.87,2.87,0,0,0,.69-.6,1,1,0,0,0,.29-.68.62.62,0,0,0-.19-.48.68.68,0,0,0-.46-.19.62.62,0,0,0-.52.24.78.78,0,0,0-.19.53A1.7,1.7,0,0,0,87.19,121.76Z"/><path class="cls-2" d="M95.9,119.94v.62H92.74v2.2h2.34v.61H92.74v3.13H92v-6.56Z"/><path class="cls-2" d="M98,119.94v6.56H97.3v-6.56Z"/><path class="cls-2" d="M99.4,126.5l2-6.56h1.08l2,6.56h-.77l-.62-2h-2.35l-.62,2Zm1.56-2.67h2l-.94-3.38h-.1Z"/><path class="cls-2" d="M105.71,126.5v-6.56h1.05l2.86,5h0v-5h.65v6.56h-.6l-3.32-5.85h0v5.85Z"/><path class="cls-2" d="M115.94,126.5H111.7V126l3.29-5.41h-3v-.62h3.9v.47l-3.35,5.47h3.39Z"/><path class="cls-2" d="M116.56,126.5l2-6.56h1.08l2,6.56h-.77l-.61-2h-2.36l-.62,2Zm1.56-2.67h2l-.94-3.38h-.1Z"/><path class="cls-2" d="M126,121.61a1.47,1.47,0,0,0-.52-.82,1.56,1.56,0,0,0-1-.32,1.44,1.44,0,0,0-.9.26,1,1,0,0,0-.33.75.74.74,0,0,0,.12.42,1.3,1.3,0,0,0,.34.32,4,4,0,0,0,.46.24c.16.07.38.16.66.26l.83.34a2.84,2.84,0,0,1,.63.36,1.58,1.58,0,0,1,.47.53,1.37,1.37,0,0,1,.18.72,2.46,2.46,0,0,1-.11.72,1.57,1.57,0,0,1-.38.61,1.73,1.73,0,0,1-.68.43,2.92,2.92,0,0,1-1,.16,2.5,2.5,0,0,1-.9-.15,2,2,0,0,1-.65-.39,2.81,2.81,0,0,1-.45-.54,3.77,3.77,0,0,1-.34-.63l.66-.23a2.42,2.42,0,0,0,.64.95,1.56,1.56,0,0,0,1.08.37,1.53,1.53,0,0,0,1.07-.33,1.06,1.06,0,0,0,.37-.85.88.88,0,0,0-.13-.49,1.21,1.21,0,0,0-.37-.38,2.69,2.69,0,0,0-.5-.28l-.69-.27c-.33-.12-.59-.22-.8-.32a3.47,3.47,0,0,1-.59-.34,1.48,1.48,0,0,1-.44-.49,1.34,1.34,0,0,1-.16-.68,1.45,1.45,0,0,1,.14-.66,1.41,1.41,0,0,1,.4-.54,1.7,1.7,0,0,1,.63-.36,2.28,2.28,0,0,1,.8-.13,2.15,2.15,0,0,1,2.16,1.62Z"/><path class="cls-3" d="M159.45,7.34A6.63,6.63,0,1,0,166.1.74,6.6,6.6,0,0,0,159.45,7.34Zm1.2,0a5.43,5.43,0,1,1,10.86,0,5.44,5.44,0,1,1-10.86,0Zm2.87,3.9h1.2V7.9H166l2.1,3.34h1.29l-2.21-3.42a2,2,0,0,0,2-2.11c0-1.49-.87-2.22-2.7-2.22h-3Zm1.2-6.77h1.59c.81,0,1.69.16,1.69,1.19,0,1.22-1,1.27-2,1.27h-1.25Z"/></g></g></svg>