<svg xmlns="http://www.w3.org/2000/svg" viewBox="0 0 171.08 170"><defs><style>.cls-1{fill:#1d4386;}.cls-1,.cls-2{fill-rule:evenodd;}.cls-2{fill:#6d6e70;}</style></defs><title>Recurso 27</title><g id="Capa_2" data-name="Capa 2"><g id="BASE"><path class="cls-1" d="M157,7.07a6.63,6.63,0,1,0,13.26,0,6.63,6.63,0,0,0-13.26,0Zm1.19,0a5.44,5.44,0,1,1,10.87,0,5.44,5.44,0,1,1-10.87,0Zm2.88,3.9h1.2V7.63h1.27L165.67,11H167l-2.2-3.43a2,2,0,0,0,2-2.11c0-1.49-.87-2.21-2.7-2.21h-3Zm1.2-6.78h1.58c.81,0,1.7.16,1.7,1.19,0,1.22-1,1.28-2,1.28h-1.25Z"/><path class="cls-1" d="M85.54,0c47.24,0,85.54,38.06,85.54,85s-38.3,85-85.54,85S0,132,0,85,38.3,0,85.54,0Zm0,18.62c-36.89,0-66.8,29.72-66.8,66.38s29.91,66.38,66.8,66.38,66.8-29.72,66.8-66.38S122.43,18.62,85.54,18.62Z"/><path class="cls-2" d="M74,96.71l-16-.78c-.21,13.1,13.44,18.87,25.6,19.78,14.2,1.07,29-6.18,29.6-19.59,0-5.46-1.52-9.49-7-12.74-5.36-3-11.36-4-21.28-7.1-6.83-2.13-10.16-4.41-9.92-6.81.16-1.54,1-2.69,3.43-3.85a11.4,11.4,0,0,1,6.46-1c5.75.57,8.08,3.69,9.19,8h15.69c-.07-11.83-10.21-17.35-21.84-18.36-11.46-1-25.27,4.23-27.13,13.19a22.64,22.64,0,0,0-.44,2.91q-.9,10.25,9,16.09,3.84,2.28,18.83,7.11c6.79,2.1,8.55,3.08,8.31,5.73-.17,2-1.24,3.51-3.7,4.59a14.43,14.43,0,0,1-7.9,1.12c-3.8-.46-4.44-.76-7.28-2.51A9.68,9.68,0,0,1,74,96.71ZM85.54,30.16A54.84,54.84,0,1,1,30.35,85,55,55,0,0,1,85.54,30.16Z"/></g></g></svg>