<svg xmlns="http://www.w3.org/2000/svg" viewBox="0 0 500 105.06"><defs><style>.cls-1,.cls-2{fill:#fff;}.cls-2{fill-rule:evenodd;}</style></defs><title>Recurso 6</title><g id="Capa_2" data-name="Capa 2"><g id="LOGOS"><path class="cls-1" d="M85.83,52.53l18.24-18.24a3.37,3.37,0,0,0-4.76-4.76L81.08,47.77,76.32,43,94.55,24.77A3.36,3.36,0,0,0,89.8,20L71.56,38.25,66.8,33.5,85,15.26a3.37,3.37,0,0,0-4.76-4.76L62,28.74,57.29,24,75.52,5.74A3.36,3.36,0,0,0,70.77,1L52.53,19.22,34.29,1a3.37,3.37,0,0,0-4.76,4.76L47.77,24,43,28.74,24.77,10.5A3.36,3.36,0,1,0,20,15.26L38.25,33.5l-4.76,4.75L15.26,20a3.36,3.36,0,0,0-4.76,4.75L28.74,43,24,47.77,5.74,29.53A3.37,3.37,0,0,0,1,34.29L19.23,52.53,1,70.77a3.36,3.36,0,1,0,4.76,4.75L24,57.28,28.74,62,10.5,80.28A3.37,3.37,0,1,0,15.26,85L33.49,66.8l4.76,4.76L20,89.8a3.36,3.36,0,0,0,4.75,4.76L43,76.32l4.76,4.76L29.53,99.31a3.37,3.37,0,1,0,4.76,4.76L52.53,85.83l18.24,18.24a3.34,3.34,0,0,0,4.75,0,3.36,3.36,0,0,0,0-4.76L57.29,81.08,62,76.32,80.28,94.56A3.37,3.37,0,0,0,85,89.8L66.8,71.56l4.76-4.76L89.8,85a3.36,3.36,0,0,0,4.75-4.76L76.32,62l4.76-4.76L99.31,75.52a3.36,3.36,0,0,0,4.76-4.75Z"/><path class="cls-2" d="M487.91,88.08a6,6,0,1,0,6.06-6A6,6,0,0,0,487.91,88.08Zm1.09,0a5,5,0,1,1,5,5.13A4.93,4.93,0,0,1,489,88.08Zm2.62,3.51h1.1v-3h1.15l1.91,3H497l-2-3.08a1.8,1.8,0,0,0,1.85-1.9c0-1.35-.79-2-2.46-2h-2.72Zm1.1-6.1h1.44c.74,0,1.55.14,1.55,1.07,0,1.1-.89,1.15-1.86,1.15h-1.13Z"/><path class="cls-1" d="M187.67,16.91a1.74,1.74,0,0,1,1.77-1.77,1.81,1.81,0,0,1,1.77,1.77V88.7a1.78,1.78,0,1,1-3.54.12V72.56h-44.8c-3.06,0-4.36-2.25-2.71-4.84l30.77-52.34a1.85,1.85,0,1,1,3.18,1.88L143.23,69h44.44Z"/><path class="cls-1" d="M189.41,93.67a4.72,4.72,0,0,1-3.26-1.29,4.81,4.81,0,0,1-1.48-3.56V75.55h-41.8a6.3,6.3,0,0,1-5.77-3,6.22,6.22,0,0,1,.53-6.42l30.71-52.26a5,5,0,0,1,4.23-2.45,4.88,4.88,0,0,1,4.19,2.37,5,5,0,0,1,0,4.94L148.51,66h36.16V16.91a4.72,4.72,0,0,1,4.77-4.77,4.83,4.83,0,0,1,4.76,4.77v71.8a4.78,4.78,0,0,1-4.79,5"/><path class="cls-1" d="M211.37,67.24v21.7c0,2.59-3.9,2.59-3.9.12V17.5a2,2,0,0,1,2-2h26.76c19.93,0,30.06,13.44,30.06,26.76,0,13.68-9.78,25-29.94,25Zm0-3.65h25c18.39,0,26.17-10.72,25.94-21.34-.12-11.55-9.79-23.1-25.94-23.1h-25Z"/><path class="cls-1" d="M209.39,93.9a5,5,0,0,1-3.28-1.19,4.71,4.71,0,0,1-1.63-3.65V17.5a5,5,0,0,1,5-5h26.76c21.71,0,33.06,15,33.06,29.76,0,17-12.93,28-32.94,28h-22v18.7a4.86,4.86,0,0,1-5,5m5-33.31h22c8,0,14.29-2.17,18.31-6.29a16.43,16.43,0,0,0,4.63-12c-.1-9.8-8.18-20.18-22.94-20.18h-22Z"/><path class="cls-1" d="M392.93,16.44c1.3-2,3.89-1.42,3.89.94V88.71a2,2,0,1,1-4,0v-65L362.4,71.49a2.27,2.27,0,0,1-4.13,0L327.85,24V88.71a2,2,0,1,1-4,0V17.38c0-2.36,2.59-2.95,3.78-.94l32.77,51Z"/><path class="cls-1" d="M394.79,93.78a4.94,4.94,0,0,1-3.4-1.32,5,5,0,0,1-1.57-3.76V34L364.93,73.11a5.27,5.27,0,0,1-4.59,2.7,5.39,5.39,0,0,1-4.72-2.91L330.86,34.22V88.7a4.92,4.92,0,0,1-5,5.08,5,5,0,0,1-5-5.08V17.38a4.91,4.91,0,0,1,4.86-5.16,5.23,5.23,0,0,1,4.49,2.69l30.19,47,30-47.1a5.46,5.46,0,0,1,4.53-2.6,4.92,4.92,0,0,1,4.89,5.16V88.7a5,5,0,0,1-5,5.08"/><path class="cls-1" d="M445.4,49.68l29.71-34.3c1.77-2.25,4.71.23,2.94,2.47l-30.3,34.42L479,87.88c1.89,2.47-.82,4.71-2.94,2.47L445.4,54.87,414.62,90.35c-2,2.24-5.06,0-2.94-2.47L442.8,52.27,412.74,17.73c-1.88-2.12.94-4.6,2.83-2.35Z"/><path class="cls-1" d="M477.92,94.27a5.6,5.6,0,0,1-4.05-1.85l-28.48-33-28.5,32.87c-2.54,2.84-7.11,2.23-8.5-.8a5.16,5.16,0,0,1,1-5.59l29.42-33.66L410.48,19.7a5,5,0,0,1-.94-5.39,4.78,4.78,0,0,1,4.35-2.82,5.15,5.15,0,0,1,4,2l27.53,31.66,27.45-31.7a4.86,4.86,0,0,1,8.26.86,5,5,0,0,1-.7,5.44L451.75,52.28l29.5,33.62a5.41,5.41,0,0,1,.89,5.78,4.67,4.67,0,0,1-4.22,2.59"/><path class="cls-1" d="M280,100.29c-1.15,3.64-5.57,4.95-8.08,2.76a5.15,5.15,0,0,1-1.38-5.51L298.57,5.37A5,5,0,0,1,301.34,2a4.91,4.91,0,0,1,5.13.73A5.07,5.07,0,0,1,308.06,8Z"/></g></g></svg>